<svg width="64" height="64" viewBox="0 0 64 64" fill="none" xmlns="http://www.w3.org/2000/svg">
<g opacity="0.3">
<path d="M38.9067 6.90671C37.8934 5.89337 36.5334 5.33337 35.1201 5.33337H16.0001C13.0667 5.33337 10.6667 7.73337 10.6667 10.6667V53.3334C10.6667 56.2667 13.0401 58.6667 15.9734 58.6667H48.0001C50.9334 58.6667 53.3334 56.2667 53.3334 53.3334V23.5467C53.3334 22.1334 52.7734 20.7734 51.7601 19.7867L38.9067 6.90671ZM40.0001 48H24.0001C22.5334 48 21.3334 46.8 21.3334 45.3334C21.3334 43.8667 22.5334 42.6667 24.0001 42.6667H40.0001C41.4667 42.6667 42.6667 43.8667 42.6667 45.3334C42.6667 46.8 41.4667 48 40.0001 48ZM40.0001 37.3334H24.0001C22.5334 37.3334 21.3334 36.1334 21.3334 34.6667C21.3334 33.2 22.5334 32 24.0001 32H40.0001C41.4667 32 42.6667 33.2 42.6667 34.6667C42.6667 36.1334 41.4667 37.3334 40.0001 37.3334ZM34.6667 21.3334V9.33337L49.3334 24H37.3334C35.8667 24 34.6667 22.8 34.6667 21.3334Z" fill="black"/>
</g>
</svg>
