<svg width="23" height="22" viewBox="0 0 23 22" fill="none" xmlns="http://www.w3.org/2000/svg">
<g clip-path="url(#clip0_163_527)">
<path d="M14.6601 1.375H7.38518C7.14407 1.375 6.91284 1.47155 6.74235 1.64342C6.57185 1.81528 6.47607 2.04838 6.47607 2.29144V6.1875L14.6601 11L18.7521 12.7407L22.8441 11V6.1875L14.6601 1.375Z" fill="#21A366"/>
<path d="M6.47607 6.1875H14.6601V11H6.47607V6.1875Z" fill="#107C41"/>
<path d="M21.935 1.375H14.6602V6.1875H22.8442V2.29144C22.8442 2.04838 22.7484 1.81528 22.5779 1.64342C22.4074 1.47155 22.1762 1.375 21.935 1.375Z" fill="#33C481"/>
<path d="M14.6601 11H6.47607V19.7086C6.47607 19.9516 6.57185 20.1847 6.74235 20.3566C6.91284 20.5284 7.14407 20.625 7.38518 20.625H21.935C22.1761 20.625 22.4073 20.5284 22.5778 20.3566C22.7483 20.1847 22.8441 19.9516 22.8441 19.7086V15.8125L14.6601 11Z" fill="#185C37"/>
<path d="M14.6602 11H22.8442V15.8125H14.6602V11Z" fill="#107C41"/>
<path opacity="0.1" d="M12.387 4.8125H6.47607V17.875H12.387C12.6279 17.8743 12.8587 17.7775 13.029 17.6058C13.1993 17.4341 13.2954 17.2014 13.2961 16.9586V5.72894C13.2954 5.48611 13.1993 5.25343 13.029 5.08172C12.8587 4.91001 12.6279 4.81323 12.387 4.8125Z" fill="black"/>
<path opacity="0.2" d="M11.705 5.5H6.47607V18.5625H11.705C11.9459 18.5618 12.1767 18.465 12.347 18.2933C12.5173 18.1216 12.6134 17.8889 12.6141 17.6461V6.41644C12.6134 6.17361 12.5173 5.94093 12.347 5.76922C12.1767 5.59751 11.9459 5.50073 11.705 5.5Z" fill="black"/>
<path opacity="0.2" d="M11.705 5.5H6.47607V17.1875H11.705C11.9459 17.1868 12.1767 17.09 12.347 16.9183C12.5173 16.7466 12.6134 16.5139 12.6141 16.2711V6.41644C12.6134 6.17361 12.5173 5.94093 12.347 5.76922C12.1767 5.59751 11.9459 5.50073 11.705 5.5Z" fill="black"/>
<path opacity="0.2" d="M11.023 5.5H6.47607V17.1875H11.023C11.2639 17.1868 11.4947 17.09 11.665 16.9183C11.8354 16.7466 11.9314 16.5139 11.9321 16.2711V6.41644C11.9314 6.17361 11.8354 5.94093 11.665 5.76922C11.4947 5.59751 11.2639 5.50073 11.023 5.5Z" fill="black"/>
<path d="M1.92913 5.5H11.0229C11.264 5.5 11.4953 5.59655 11.6658 5.76842C11.8362 5.94028 11.932 6.17338 11.932 6.41644V15.5836C11.932 15.8266 11.8362 16.0597 11.6658 16.2316C11.4953 16.4034 11.264 16.5 11.0229 16.5H1.92913C1.68802 16.5 1.45678 16.4034 1.28629 16.2316C1.1158 16.0597 1.02002 15.8266 1.02002 15.5836L1.02002 6.41644C1.02002 6.17338 1.1158 5.94028 1.28629 5.76842C1.45678 5.59655 1.68802 5.5 1.92913 5.5Z" fill="#107C41"/>
<path d="M3.42969 14.4375L5.63664 10.9904L3.61519 7.5625H5.24176L6.34524 9.75356C6.44663 9.96119 6.51642 10.1161 6.55461 10.2183H6.56893C6.64168 10.0524 6.71784 9.89106 6.79741 9.73431L7.97658 7.5625H9.46948L7.3962 10.9711L9.522 14.4375H7.93294L6.65828 12.0312C6.59823 11.9288 6.54733 11.8211 6.50619 11.7095H6.48709C6.4499 11.8186 6.40047 11.9231 6.33978 12.0209L5.0283 14.4375H3.42969Z" fill="white"/>
</g>
<defs>
<clipPath id="clip0_163_527">
<rect width="22" height="22" fill="white" transform="translate(0.887695)"/>
</clipPath>
</defs>
</svg>
