<svg width="22" height="22" viewBox="0 0 22 22" fill="none" xmlns="http://www.w3.org/2000/svg">
<g clip-path="url(#clip0_163_516)">
<path d="M12.3364 1.35313C9.82133 1.36044 7.41133 2.36072 5.63288 4.13546C3.85443 5.9102 2.85206 8.31515 2.84473 10.825L14.87 13.3533L12.3364 1.35313Z" fill="#ED6C47"/>
<path d="M12.3364 1.35313C14.8515 1.36044 17.2615 2.36072 19.04 4.13546C20.8184 5.9102 21.8208 8.31515 21.8281 10.825L17.0823 14.0441L12.3364 10.825V1.35313Z" fill="#FF8F6B"/>
<path d="M12.3364 20.2969C14.8515 20.2896 17.2615 19.2893 19.0399 17.5145C20.8184 15.7398 21.8208 13.3348 21.8281 10.825H2.84473C2.85206 13.3348 3.85443 15.7398 5.63288 17.5145C7.41133 19.2893 9.82132 20.2896 12.3364 20.2969Z" fill="#D35230"/>
<path opacity="0.1" d="M11.4318 4.73594H5.08592C3.53613 6.55816 2.73893 8.90042 2.85602 11.2876C2.97311 13.6748 3.99573 15.9282 5.71644 17.5906H11.4318C11.6714 17.5901 11.901 17.4949 12.0705 17.3259C12.24 17.1569 12.3355 16.9279 12.3362 16.6888V5.6378C12.3355 5.39871 12.24 5.16963 12.0705 5.00064C11.901 4.83164 11.6714 4.73647 11.4318 4.73594Z" fill="black"/>
<path opacity="0.2" d="M10.7536 5.4125H4.56638C3.16885 7.39129 2.58946 9.8315 2.94871 12.2257C3.30795 14.6198 4.57818 16.7837 6.49523 18.2672H10.7543C10.9938 18.2665 11.2232 18.1712 11.3925 18.0022C11.5619 17.8333 11.6573 17.6043 11.658 17.3653V6.31436C11.6573 6.07527 11.5618 5.84619 11.3923 5.6772C11.2228 5.5082 10.9932 5.41303 10.7536 5.4125Z" fill="black"/>
<path opacity="0.2" d="M10.754 5.4125H4.56679C3.363 7.11567 2.76075 9.16986 2.85476 11.2519C2.94878 13.334 3.73372 15.3258 5.08612 16.9141H10.7547C10.9942 16.9133 11.2236 16.8181 11.3929 16.6491C11.5623 16.4801 11.6577 16.2512 11.6584 16.0122V6.31436C11.6577 6.07527 11.5622 5.84619 11.3927 5.6772C11.2232 5.5082 10.9936 5.41303 10.754 5.4125Z" fill="black"/>
<path opacity="0.2" d="M10.076 5.4125H4.56679C3.36301 7.11567 2.76075 9.16986 2.85476 11.2519C2.94878 13.334 3.73372 15.3258 5.08612 16.9141H10.0767C10.3162 16.9133 10.5456 16.8181 10.715 16.6491C10.8843 16.4801 10.9797 16.2512 10.9805 16.0122V6.31436C10.9797 6.07527 10.8842 5.84619 10.7147 5.6772C10.5453 5.5082 10.3156 5.41303 10.076 5.4125Z" fill="black"/>
<path d="M1.03656 5.4125H10.0767C10.3164 5.4125 10.5463 5.50752 10.7158 5.67665C10.8853 5.84578 10.9805 6.07517 10.9805 6.31436V15.3356C10.9805 15.5748 10.8853 15.8042 10.7158 15.9733C10.5463 16.1425 10.3164 16.2375 10.0767 16.2375H1.03656C0.79687 16.2375 0.566999 16.1425 0.397513 15.9733C0.228028 15.8042 0.132813 15.5748 0.132813 15.3356L0.132812 6.31436C0.132812 6.07517 0.228028 5.84578 0.397513 5.67665C0.566999 5.50752 0.79687 5.4125 1.03656 5.4125Z" fill="#C43E1C"/>
<path d="M5.55461 7.44219C6.22219 7.39733 6.88407 7.59033 7.42243 7.98682C7.64324 8.18343 7.81634 8.42759 7.92863 8.70082C8.04092 8.97404 8.08946 9.26918 8.07058 9.56389C8.07799 9.94654 7.96591 10.322 7.7499 10.6383C7.53002 10.9878 7.21359 11.2664 6.8387 11.4407C6.41009 11.6393 5.94163 11.7374 5.46918 11.7275H4.17424V14.2078H2.84473V7.44219H5.55461ZM4.17356 10.6105H5.31731C5.67995 10.6371 6.0398 10.5303 6.32886 10.3101C6.44371 10.2364 6.53623 10.1328 6.59644 10.0105C6.65665 9.88816 6.68228 9.75176 6.67056 9.61598C6.67056 8.8677 6.23371 8.49356 5.36003 8.49356H4.17356V10.6105Z" fill="#F9F7F7"/>
</g>
<defs>
<clipPath id="clip0_163_516">
<rect width="21.8879" height="21.65" fill="white"/>
</clipPath>
</defs>
</svg>
