<svg width="21" height="20" viewBox="0 0 21 20" fill="none" xmlns="http://www.w3.org/2000/svg">
<g clip-path="url(#clip0_163_541)">
<path d="M20.0213 1.25H6.79423C6.57504 1.25 6.36483 1.33778 6.20984 1.49402C6.05485 1.65026 5.96777 1.86217 5.96777 2.08312V5.625L13.4078 7.8125L20.8478 5.625V2.08312C20.8478 1.86217 20.7607 1.65026 20.6057 1.49402C20.4507 1.33778 20.2405 1.25 20.0213 1.25Z" fill="#41A5EE"/>
<path d="M20.8478 5.625H5.96777V10L13.4078 12.1875L20.8478 10V5.625Z" fill="#2B7CD3"/>
<path d="M20.8478 10H5.96777V14.375L13.4078 16.5625L20.8478 14.375V10Z" fill="#185ABD"/>
<path d="M20.8478 14.375H5.96777V17.9169C5.96777 18.1378 6.05485 18.3497 6.20984 18.506C6.36483 18.6622 6.57504 18.75 6.79423 18.75H20.0213C20.2405 18.75 20.4507 18.6622 20.6057 18.506C20.7607 18.3497 20.8478 18.1378 20.8478 17.9169V14.375Z" fill="#103F91"/>
<path opacity="0.1" d="M11.3413 4.375H5.96777V16.25H11.3413C11.5603 16.2493 11.7701 16.1614 11.925 16.0053C12.0798 15.8492 12.1671 15.6376 12.1678 15.4169V5.20813C12.1671 4.98737 12.0798 4.77584 11.925 4.61975C11.7701 4.46365 11.5603 4.37566 11.3413 4.375Z" fill="black"/>
<path opacity="0.2" d="M10.7213 5H5.96777V16.875H10.7213C10.9403 16.8743 11.1501 16.7864 11.305 16.6303C11.4598 16.4742 11.5471 16.2626 11.5478 16.0419V5.83313C11.5471 5.61237 11.4598 5.40084 11.305 5.24475C11.1501 5.08865 10.9403 5.00066 10.7213 5Z" fill="black"/>
<path opacity="0.2" d="M10.7213 5H5.96777V15.625H10.7213C10.9403 15.6243 11.1501 15.5364 11.305 15.3803C11.4598 15.2242 11.5471 15.0126 11.5478 14.7919V5.83313C11.5471 5.61237 11.4598 5.40084 11.305 5.24475C11.1501 5.08865 10.9403 5.00066 10.7213 5Z" fill="black"/>
<path opacity="0.2" d="M10.1013 5H5.96777V15.625H10.1013C10.3203 15.6243 10.5301 15.5364 10.685 15.3803C10.8398 15.2242 10.9271 15.0126 10.9278 14.7919V5.83313C10.9271 5.61237 10.8398 5.40084 10.685 5.24475C10.5301 5.08865 10.3203 5.00066 10.1013 5Z" fill="black"/>
<path d="M1.83427 5H10.1014C10.3205 5 10.5308 5.08778 10.6857 5.24402C10.8407 5.40026 10.9278 5.61217 10.9278 5.83313V14.1669C10.9278 14.3878 10.8407 14.5997 10.6857 14.756C10.5308 14.9122 10.3205 15 10.1014 15H1.83427C1.61508 15 1.40487 14.9122 1.24988 14.756C1.09489 14.5997 1.00781 14.3878 1.00781 14.1669L1.00781 5.83313C1.00781 5.61217 1.09489 5.40026 1.24988 5.24402C1.40487 5.08778 1.61508 5 1.83427 5Z" fill="#185ABD"/>
<path d="M8.4168 13.125H7.3008L5.99881 8.8125L4.63481 13.125H3.51881L2.27881 6.875H3.39481L4.26281 11.25L5.56481 7H6.4948L7.7348 11.25L8.6028 6.875H9.6568L8.4168 13.125Z" fill="white"/>
</g>
<defs>
<clipPath id="clip0_163_541">
<rect width="20" height="20" fill="white" transform="translate(0.887695)"/>
</clipPath>
</defs>
</svg>
